<?xml version="1.0" encoding="UTF-8" standalone="no"?>
<!DOCTYPE svg PUBLIC "-//W3C//DTD SVG 1.1//EN"
 "http://www.w3.org/Graphics/SVG/1.1/DTD/svg11.dtd">
<!-- Generated by graphviz version 2.43.0 (0)
 -->
<!-- Title: %3 Pages: 1 -->
<svg width="294pt" height="299pt"
 viewBox="0.00 0.00 293.50 299.00" xmlns="http://www.w3.org/2000/svg" xmlns:xlink="http://www.w3.org/1999/xlink">
<g id="graph0" class="graph" transform="scale(1 1) rotate(0) translate(4 295)">
<title>%3</title>
<polygon fill="#eeeeee" stroke="transparent" points="-4,4 -4,-295 289.5,-295 289.5,4 -4,4"/>
<!-- Ping -->
<g id="node1" class="node">
<title>Ping</title>
<g id="a_node1"><a xlink:href="http://Ping_details.html" xlink:title="&lt;TABLE&gt;">
<polygon fill="#3f51b5" stroke="transparent" points="17.5,-268 17.5,-287 197.5,-287 197.5,-268 17.5,-268"/>
<polygon fill="none" stroke="black" points="17.5,-268 17.5,-287 197.5,-287 197.5,-268 17.5,-268"/>
<text text-anchor="start" x="95" y="-274.4" font-family="Roboto" font-size="12.00" fill="white">Ping</text>
<polygon fill="#bbdefb" stroke="transparent" points="17.5,-249 17.5,-268 110.5,-268 110.5,-249 17.5,-249"/>
<polygon fill="none" stroke="black" points="17.5,-249 17.5,-268 110.5,-268 110.5,-249 17.5,-249"/>
<text text-anchor="start" x="58.5" y="-255.4" font-family="Roboto" font-size="12.00">id</text>
<polygon fill="#bbdefb" stroke="transparent" points="110.5,-249 110.5,-268 197.5,-268 197.5,-249 110.5,-249"/>
<polygon fill="none" stroke="black" points="110.5,-249 110.5,-268 197.5,-268 197.5,-249 110.5,-249"/>
<text text-anchor="start" x="113.5" y="-255.4" font-family="Roboto" font-size="12.00">INTEGER (PK)</text>
<polygon fill="#bbdefb" stroke="transparent" points="17.5,-230 17.5,-249 110.5,-249 110.5,-230 17.5,-230"/>
<polygon fill="none" stroke="black" points="17.5,-230 17.5,-249 110.5,-249 110.5,-230 17.5,-230"/>
<text text-anchor="start" x="36.5" y="-236.4" font-family="Roboto" font-size="12.00">message</text>
<polygon fill="#bbdefb" stroke="transparent" points="110.5,-230 110.5,-249 197.5,-249 197.5,-230 110.5,-230"/>
<polygon fill="none" stroke="black" points="110.5,-230 110.5,-249 197.5,-249 197.5,-230 110.5,-230"/>
<text text-anchor="start" x="119" y="-236.4" font-family="Roboto" font-size="12.00">VARCHAR ()</text>
<polygon fill="#bbdefb" stroke="transparent" points="17.5,-211 17.5,-230 110.5,-230 110.5,-211 17.5,-211"/>
<polygon fill="none" stroke="black" points="17.5,-211 17.5,-230 110.5,-230 110.5,-211 17.5,-211"/>
<text text-anchor="start" x="32" y="-217.4" font-family="Roboto" font-size="12.00">created_at</text>
<polygon fill="#bbdefb" stroke="transparent" points="110.5,-211 110.5,-230 197.5,-230 197.5,-211 110.5,-211"/>
<polygon fill="none" stroke="black" points="110.5,-211 110.5,-230 197.5,-230 197.5,-211 110.5,-211"/>
<text text-anchor="start" x="117" y="-217.4" font-family="Roboto" font-size="12.00">DATETIME ()</text>
<polygon fill="#bbdefb" stroke="transparent" points="17.5,-192 17.5,-211 110.5,-211 110.5,-192 17.5,-192"/>
<polygon fill="none" stroke="black" points="17.5,-192 17.5,-211 110.5,-211 110.5,-192 17.5,-192"/>
<text text-anchor="start" x="22.5" y="-198.4" font-family="Roboto" font-size="12.00">created_by_id</text>
<polygon fill="#bbdefb" stroke="transparent" points="110.5,-192 110.5,-211 197.5,-211 197.5,-192 110.5,-192"/>
<polygon fill="none" stroke="black" points="110.5,-192 110.5,-211 197.5,-211 197.5,-192 110.5,-192"/>
<text text-anchor="start" x="121" y="-198.4" font-family="Roboto" font-size="12.00">INTEGER ()</text>
<polygon fill="#bbdefb" stroke="transparent" points="17.5,-173 17.5,-192 110.5,-192 110.5,-173 17.5,-173"/>
<polygon fill="none" stroke="black" points="17.5,-173 17.5,-192 110.5,-192 110.5,-173 17.5,-173"/>
<text text-anchor="start" x="30" y="-179.4" font-family="Roboto" font-size="12.00">updated_at</text>
<polygon fill="#bbdefb" stroke="transparent" points="110.5,-173 110.5,-192 197.5,-192 197.5,-173 110.5,-173"/>
<polygon fill="none" stroke="black" points="110.5,-173 110.5,-192 197.5,-192 197.5,-173 110.5,-173"/>
<text text-anchor="start" x="117" y="-179.4" font-family="Roboto" font-size="12.00">DATETIME ()</text>
<polygon fill="#bbdefb" stroke="transparent" points="17.5,-154 17.5,-173 110.5,-173 110.5,-154 17.5,-154"/>
<polygon fill="none" stroke="black" points="17.5,-154 17.5,-173 110.5,-173 110.5,-154 17.5,-154"/>
<text text-anchor="start" x="20.5" y="-160.4" font-family="Roboto" font-size="12.00">updated_by_id</text>
<polygon fill="#bbdefb" stroke="transparent" points="110.5,-154 110.5,-173 197.5,-173 197.5,-154 110.5,-154"/>
<polygon fill="none" stroke="black" points="110.5,-154 110.5,-173 197.5,-173 197.5,-154 110.5,-154"/>
<text text-anchor="start" x="121" y="-160.4" font-family="Roboto" font-size="12.00">INTEGER ()</text>
<polygon fill="#bbdefb" stroke="transparent" points="17.5,-135 17.5,-154 110.5,-154 110.5,-135 17.5,-135"/>
<polygon fill="none" stroke="black" points="17.5,-135 17.5,-154 110.5,-154 110.5,-135 17.5,-135"/>
<text text-anchor="start" x="42.5" y="-141.4" font-family="Roboto" font-size="12.00">prev_id</text>
<polygon fill="#bbdefb" stroke="transparent" points="110.5,-135 110.5,-154 197.5,-154 197.5,-135 110.5,-135"/>
<polygon fill="none" stroke="black" points="110.5,-135 110.5,-154 197.5,-154 197.5,-135 110.5,-135"/>
<text text-anchor="start" x="121" y="-141.4" font-family="Roboto" font-size="12.00">INTEGER ()</text>
</a>
</g>
</g>
<!-- Ping&#45;&gt;Ping -->
<g id="edge3" class="edge">
<title>Ping&#45;&gt;Ping</title>
<g id="a_edge3"><a xlink:title="Relation between Ping and Ping">
<path fill="none" stroke="#1e88e5" stroke-dasharray="5,2" d="M205.67,-219.04C216.5,-217.52 223.5,-214.83 223.5,-211 223.5,-208.54 220.63,-206.56 215.72,-205.05"/>
<polygon fill="#1e88e5" stroke="#1e88e5" points="216.17,-201.57 205.67,-202.96 214.74,-208.42 216.17,-201.57"/>
</a>
</g>
<text text-anchor="middle" x="234.5" y="-208.5" font-family="Roboto" font-size="10.00">prev</text>
</g>
<!-- Ping&#45;&gt;Ping -->
<g id="edge4" class="edge">
<title>Ping&#45;&gt;Ping</title>
<g id="a_edge4"><a xlink:title="Relation between Ping and Ping">
<path fill="none" stroke="#1e88e5" stroke-dasharray="5,2" d="M205.7,-229.7C228.58,-228.09 245.5,-221.86 245.5,-211 245.5,-201.84 233.45,-195.97 215.95,-193.39"/>
<polygon fill="#1e88e5" stroke="#1e88e5" points="216.01,-189.88 205.7,-192.3 215.27,-196.84 216.01,-189.88"/>
</a>
</g>
<text text-anchor="middle" x="256.5" y="-208.5" font-family="Roboto" font-size="10.00">next</text>
</g>
<!-- User -->
<g id="node2" class="node">
<title>User</title>
<g id="a_node2"><a xlink:href="http://User_details.html" xlink:title="&lt;TABLE&gt;">
<polygon fill="#3f51b5" stroke="transparent" points="8.5,-61 8.5,-80 207.5,-80 207.5,-61 8.5,-61"/>
<polygon fill="none" stroke="black" points="8.5,-61 8.5,-80 207.5,-80 207.5,-61 8.5,-61"/>
<text text-anchor="start" x="94" y="-67.4" font-family="Roboto" font-size="12.00" fill="white">User</text>
<polygon fill="#bbdefb" stroke="transparent" points="8.5,-42 8.5,-61 120.5,-61 120.5,-42 8.5,-42"/>
<polygon fill="none" stroke="black" points="8.5,-42 8.5,-61 120.5,-61 120.5,-42 8.5,-42"/>
<text text-anchor="start" x="59" y="-48.4" font-family="Roboto" font-size="12.00">id</text>
<polygon fill="#bbdefb" stroke="transparent" points="120.5,-42 120.5,-61 207.5,-61 207.5,-42 120.5,-42"/>
<polygon fill="none" stroke="black" points="120.5,-42 120.5,-61 207.5,-61 207.5,-42 120.5,-42"/>
<text text-anchor="start" x="123.5" y="-48.4" font-family="Roboto" font-size="12.00">INTEGER (PK)</text>
<polygon fill="#bbdefb" stroke="transparent" points="8.5,-23 8.5,-42 120.5,-42 120.5,-23 8.5,-23"/>
<polygon fill="none" stroke="black" points="8.5,-23 8.5,-42 120.5,-42 120.5,-23 8.5,-23"/>
<text text-anchor="start" x="34" y="-29.4" font-family="Roboto" font-size="12.00">username</text>
<polygon fill="#bbdefb" stroke="transparent" points="120.5,-23 120.5,-42 207.5,-42 207.5,-23 120.5,-23"/>
<polygon fill="none" stroke="black" points="120.5,-23 120.5,-42 207.5,-42 207.5,-23 120.5,-23"/>
<text text-anchor="start" x="129" y="-29.4" font-family="Roboto" font-size="12.00">VARCHAR ()</text>
<polygon fill="#bbdefb" stroke="transparent" points="8.5,-4 8.5,-23 120.5,-23 120.5,-4 8.5,-4"/>
<polygon fill="none" stroke="black" points="8.5,-4 8.5,-23 120.5,-23 120.5,-4 8.5,-4"/>
<text text-anchor="start" x="11.5" y="-10.4" font-family="Roboto" font-size="12.00">hashed_password</text>
<polygon fill="#bbdefb" stroke="transparent" points="120.5,-4 120.5,-23 207.5,-23 207.5,-4 120.5,-4"/>
<polygon fill="none" stroke="black" points="120.5,-4 120.5,-23 207.5,-23 207.5,-4 120.5,-4"/>
<text text-anchor="start" x="129" y="-10.4" font-family="Roboto" font-size="12.00">VARCHAR ()</text>
</a>
</g>
</g>
<!-- Ping&#45;&gt;User -->
<g id="edge1" class="edge">
<title>Ping&#45;&gt;User</title>
<g id="a_edge1"><a xlink:title="Relation between Ping and User">
<path fill="none" stroke="#1e88e5" stroke-dasharray="5,2" d="M67.79,-130.98C66.44,-121.27 66.72,-111.44 69.5,-102 70.37,-99.06 71.43,-96.12 72.64,-93.22"/>
<polygon fill="#1e88e5" stroke="#1e88e5" points="75.84,-94.64 76.97,-84.11 69.52,-91.64 75.84,-94.64"/>
</a>
</g>
<text text-anchor="middle" x="97" y="-105" font-family="Roboto" font-size="10.00">created_by</text>
</g>
<!-- Ping&#45;&gt;User -->
<g id="edge2" class="edge">
<title>Ping&#45;&gt;User</title>
<g id="a_edge2"><a xlink:title="Relation between Ping and User">
<path fill="none" stroke="#1e88e5" stroke-dasharray="5,2" d="M125.4,-130.71C125.98,-121.05 125.81,-111.3 124.5,-102 124.14,-99.46 123.7,-96.88 123.19,-94.28"/>
<polygon fill="#1e88e5" stroke="#1e88e5" points="126.55,-93.27 120.97,-84.26 119.72,-94.79 126.55,-93.27"/>
</a>
</g>
<text text-anchor="middle" x="153.5" y="-105" font-family="Roboto" font-size="10.00">updated_by</text>
</g>
</g>
</svg>
